<svg width="512" height="512" viewBox="0 0 512 512" fill="none" xmlns="http://www.w3.org/2000/svg">
<path d="M88.5544 221.738L90.8177 222.201L89.2814 231.437L98.5175 232.973L98.0299 235.644L77.4525 232.2L79.8483 218.188L82.1117 218.651L80.2035 229.992L86.9267 231.132L88.5544 221.738Z" fill="white"/>
<path d="M93.9501 205.45C88.0243 203.295 85.3306 197.732 87.3951 191.965C89.6179 186.288 95.3139 184.094 101.24 186.249C107.165 188.405 109.859 193.968 107.795 199.735C105.572 205.412 99.7846 207.765 93.9501 205.45ZM100.186 188.805C96.0248 187.246 91.4002 187.95 89.5427 192.994C87.6853 198.037 90.5013 201.561 94.821 203.212C98.9824 204.771 103.607 204.066 105.464 199.023C107.48 194.07 104.506 190.455 100.186 188.805Z" fill="white"/>
<path d="M100.084 165.969L104.601 158.876C106.86 155.329 110.195 154.302 113.267 156.286C115.706 157.906 116.399 159.993 115.686 162.323C118.919 158.917 125.032 164.766 125.896 164L126.054 164.091L124.435 166.531C123.187 166.865 117.89 161.064 115.083 165.56L111.911 170.689L119.096 175.047L117.659 177.171L100.084 165.969ZM110.038 169.185L112.844 164.689C113.94 162.791 115.31 160.419 112.238 158.434C109.166 156.449 107.479 158.639 106.383 160.537L103.577 165.033L110.038 169.185Z" fill="white"/>
<path d="M120.466 137.243L135.468 146.327L126.565 131.063L128.568 129.056L144.002 137.756L134.667 122.876L136.669 120.869L148.096 139.065L146.094 141.073L129.869 131.916L139.222 147.861L137.22 149.868L118.647 138.934L120.466 137.243Z" fill="white"/>
<path d="M152.718 108.411L165.145 120.859L160.034 103.777L162.577 102.293L175.595 114.449L169.96 97.9086L172.254 96.4916L178.801 116.932L176.257 118.416L162.698 105.737L168.01 123.567L165.467 125.051L150.083 110.053L152.718 108.411Z" fill="white"/>
<path d="M190.595 88.1017L199.681 103.049L198.786 85.2384L201.622 84.3448L211.365 99.2494L209.879 81.731L212.466 80.9043L214.047 102.274L211.211 103.168L201.018 87.5817L201.955 106.049L199.12 106.943L187.692 88.7457L190.595 88.1017Z" fill="white"/>
<path d="M233.321 93.3659L232.096 98.7748L229.376 99.1025L234.683 77.4914L237.561 77.255L247.576 97.1673L244.856 97.495L242.454 92.5231L233.321 93.3659ZM241.378 90.0037L236.441 79.5607L233.967 90.7862L241.378 90.0037Z" fill="white"/>
<path d="M262.575 76.3017L271.136 76.8155C275.213 77.0602 277.853 79.428 277.632 83.0971C277.37 86.1089 275.891 87.5748 273.487 88.0852C278.081 89.261 275.869 97.4747 276.91 97.8644L276.818 98.0226L273.965 97.8513C273.04 96.8957 275.61 89.5218 270.31 89.2037L264.354 88.928L263.773 97.2396L261.169 97.0014L262.575 76.3017ZM264.5 86.482L269.8 86.8001C271.997 87.0138 274.625 86.8443 275.004 83.2666C275.224 79.5976 272.462 79.2681 270.423 79.1458L265.124 78.8277L264.5 86.482Z" fill="white"/>
<path d="M296.447 80.4625L303.687 82.5337C309.321 84.0992 311.589 88.5722 309.884 95.1797C308.02 101.696 303.772 104.305 298.138 102.739L290.898 100.668L296.447 80.4625ZM293.94 99.0505L298.692 100.318C303.76 101.767 306.177 98.3121 307.237 94.2844C308.297 90.2566 308.134 86.1555 303.066 84.7057L298.314 83.4386L293.94 99.0505Z" fill="white"/>
<path d="M352.036 122.258C350.325 124.856 346.991 125.883 342.495 123.077C338.316 120.453 336.613 116.095 338.988 111.983L341.111 113.42C339.808 116.042 340.135 118.762 343.749 121.27C346.821 123.254 348.75 122.47 349.822 120.98C351.441 118.54 350.291 117.244 346.976 113.854C344.744 111.51 342.22 108.577 344.387 105.188C346.189 102.432 349.408 101.971 353.429 104.503C357.134 106.853 358.544 110.62 356.444 114.258L354.321 112.821C355.532 110.358 354.931 108.112 352.175 106.31C349.736 104.691 347.764 104.818 346.784 106.15C345.256 108.432 346.88 110.002 349.112 112.345C352.494 115.985 354.569 118.237 352.036 122.258Z" fill="white"/>
<path d="M376.398 125.357L371.368 120.555L372.938 118.931L384.939 130.289L383.369 131.913L378.339 127.11L365.66 140.669L363.719 138.916L376.398 125.357Z" fill="white"/>
<path d="M384.07 162.476C380.737 158.021 381.864 154.243 385.297 151.585L396.593 143.344L398.101 145.48L386.805 153.721C383.987 155.68 383.841 158.126 385.957 161.035C388.074 163.944 390.495 164.498 393.155 162.449L404.451 154.208L405.959 156.344L394.663 164.585C391.322 167.085 387.403 166.931 384.07 162.476Z" fill="white"/>
<path d="M415.696 172.721L418.882 179.622C421.351 184.843 419.427 189.637 413.365 192.465C407.304 195.292 402.327 193.684 400.017 188.554L396.831 181.653L415.696 172.721ZM400.11 182.914L402.22 187.295C404.464 192.176 408.589 191.605 412.289 189.945C415.989 188.285 419.039 185.195 416.862 180.564L414.752 176.183L400.11 182.914Z" fill="white"/>
<path d="M429.314 207.578L409.33 213.334L408.662 210.839L428.646 205.083L429.314 207.578Z" fill="white"/>
<path d="M423.182 226.603C429.437 225.996 434.383 229.484 435.08 235.582C435.778 241.679 431.657 246.259 425.56 246.957C419.463 247.655 414.359 244.075 413.661 237.978C412.964 231.881 417.085 227.301 423.182 226.603ZM425.233 244.237C429.766 243.691 433.448 240.966 432.859 235.775C432.271 230.585 428.043 228.777 423.601 229.165C419.159 229.553 415.385 232.435 415.974 237.626C416.562 242.816 420.857 244.874 425.233 244.237Z" fill="white"/>
<path d="M423.624 291.901L421.364 291.419L422.979 282.196L413.756 280.582L414.266 277.915L434.814 281.533L432.3 295.525L430.04 295.043L432.044 283.718L425.331 282.521L423.624 291.901Z" fill="white"/>
<path d="M418.091 308.143C423.998 310.349 426.645 315.933 424.532 321.683C422.261 327.341 416.547 329.487 410.639 327.281C404.732 325.076 402.085 319.491 404.198 313.741C406.469 308.083 412.276 305.779 418.091 308.143ZM411.714 324.735C415.862 326.329 420.493 325.664 422.393 320.636C424.293 315.608 421.507 312.061 417.201 310.374C413.053 308.78 408.423 309.445 406.523 314.473C404.465 319.408 407.409 323.048 411.714 324.735Z" fill="white"/>
<path d="M411.624 347.571L407.047 354.626C404.758 358.153 401.415 359.152 398.36 357.142C395.934 355.502 395.259 353.409 395.991 351.085C392.73 354.464 386.667 348.563 385.796 349.322L385.639 349.229L387.278 346.804C388.529 346.48 393.777 352.325 396.622 347.853L399.837 342.752L392.689 338.332L394.144 336.221L411.624 347.571ZM401.698 344.271L398.853 348.743C397.741 350.632 396.352 352.993 399.407 355.003C402.462 357.013 404.167 354.838 405.279 352.949L408.123 348.477L401.698 344.271Z" fill="white"/>
<path d="M391 376.123L376.075 366.914L384.849 382.252L382.829 384.242L367.469 375.412L376.679 390.371L374.659 392.361L363.386 374.068L365.405 372.078L381.552 381.371L372.334 365.348L374.354 363.357L392.834 374.448L391 376.123Z" fill="white"/>
<path d="M358.505 404.682L346.184 392.13L351.151 409.254L348.595 410.717L335.681 398.452L341.176 415.039L338.87 416.437L332.496 395.941L335.052 394.479L348.503 407.272L343.342 389.398L345.898 387.935L361.154 403.062L358.505 404.682Z" fill="white"/>
<path d="M320.459 424.671L311.499 409.648L312.244 427.465L309.401 428.335L299.784 413.349L301.121 430.879L298.528 431.684L297.127 410.301L299.97 409.432L310.031 425.103L309.25 406.629L312.093 405.759L323.367 424.052L320.459 424.671Z" fill="white"/>
<path d="M277.779 419.046L279.049 413.648L281.772 413.343L276.283 434.909L273.403 435.121L263.556 415.125L266.279 414.82L268.638 419.812L277.779 419.046ZM269.693 422.341L274.542 432.825L277.111 421.621L269.693 422.341Z" fill="white"/>
<path d="M248.382 435.863L239.825 435.277C235.751 434.998 233.131 432.608 233.382 428.941C233.67 425.931 235.162 424.478 237.569 423.988C232.986 422.773 235.267 414.579 234.23 414.18L234.322 414.023L237.174 414.218C238.091 415.181 235.458 422.533 240.755 422.896L246.71 423.222L247.36 414.916L249.963 415.176L248.382 435.863ZM246.542 425.667L241.245 425.304C239.051 425.072 236.421 425.219 236.012 428.794C235.761 432.461 238.52 432.813 240.558 432.953L245.854 433.316L246.542 425.667Z" fill="white"/>
<path d="M214.546 431.416L207.323 429.284C201.703 427.671 199.472 423.179 201.234 416.586C203.153 410.086 207.423 407.513 213.043 409.126L220.266 411.258L214.546 431.416ZM217.209 412.85L212.468 411.543C207.413 410.051 204.967 413.485 203.873 417.504C202.779 421.523 202.907 425.625 207.963 427.118L212.704 428.425L217.209 412.85Z" fill="white"/>
<path d="M159.312 389.153C161.044 386.57 164.387 385.571 168.859 388.415C173.016 391.074 174.682 395.446 172.273 399.538L170.162 398.083C171.487 395.472 171.182 392.75 167.59 390.211C164.535 388.201 162.599 388.969 161.515 390.45C159.875 392.876 161.014 394.182 164.3 397.6C166.513 399.962 169.012 402.917 166.816 406.287C164.991 409.028 161.768 409.462 157.769 406.895C154.084 404.514 152.705 400.736 154.836 397.115L156.947 398.57C155.715 401.024 156.298 403.274 159.038 405.099C161.464 406.739 163.436 406.629 164.428 405.305C165.975 403.036 164.364 401.452 162.151 399.09C158.8 395.422 156.745 393.153 159.312 389.153Z" fill="white"/>
<path d="M134.977 385.848L139.966 390.693L138.382 392.304L126.477 380.845L128.061 379.234L133.051 384.079L145.844 370.628L147.769 372.397L134.977 385.848Z" fill="white"/>
<path d="M127.618 348.666C130.913 353.149 129.755 356.917 126.3 359.546L114.935 367.692L113.444 365.543L124.809 357.397C127.644 355.463 127.811 353.018 125.719 350.091C123.627 347.164 121.211 346.589 118.534 348.617L107.169 356.762L105.678 354.613L117.043 346.468C120.406 343.996 124.323 344.183 127.618 348.666Z" fill="white"/>
<path d="M96.08 338.155L92.9522 331.227C90.5276 325.985 92.4923 321.207 98.5773 318.431C104.662 315.655 109.625 317.305 111.892 322.454L115.02 329.382L96.08 338.155ZM111.752 328.094L109.679 323.694C107.476 318.795 103.346 319.331 99.6321 320.959C95.9182 322.588 92.8428 325.652 94.9805 330.302L97.0534 334.701L111.752 328.094Z" fill="white"/>
<path d="M82.7565 303.183L102.788 297.596L103.436 300.097L83.4039 305.684L82.7565 303.183Z" fill="white"/>
<path d="M89.0496 284.211C82.7894 284.765 77.8733 281.235 77.227 275.133C76.5808 269.03 80.7401 264.484 86.8429 263.838C92.9456 263.192 98.0192 266.814 98.6654 272.917C99.3117 279.02 95.1524 283.565 89.0496 284.211ZM87.1476 266.561C82.6098 267.068 78.9049 269.762 79.4496 274.957C79.9943 280.153 84.2071 281.997 88.6522 281.646C93.0973 281.296 96.895 278.445 96.3502 273.25C95.8055 268.054 91.5279 265.96 87.1476 266.561Z" fill="white"/>
</svg>
