<svg width="24" height="31" viewBox="0 0 24 31" fill="none" xmlns="http://www.w3.org/2000/svg">
<path d="M1.62258 0.404492H14.3897C14.6086 0.404492 14.8176 0.491855 14.9717 0.646651L23.3753 9.0874C23.5295 9.24224 23.616 9.45209 23.616 9.6707V29.3739C23.616 29.8289 23.249 30.1994 22.7934 30.1994H1.62264C1.16714 30.1994 0.799999 29.8289 0.799999 29.3739V1.22998C0.799999 1.22996 0.799999 1.22995 0.799999 1.22994C0.799942 0.774957 1.16709 0.404492 1.62258 0.404492ZM17.7858 5.80889L15.2124 3.22411V8.84525H20.8088L17.7858 5.80889ZM2.44522 28.5485H21.9706V10.4961H14.3897C13.9342 10.4961 13.567 10.1256 13.567 9.67064V2.05533H2.44522V28.5485Z" fill="#8D6F57" stroke="#8D6F57" stroke-width="0.4"/>
<line x1="5.6825" y1="13.4374" x2="19.5154" y2="13.4374" stroke="#8D6F57" stroke-width="2"/>
<line x1="5.6825" y1="18.6248" x2="17.7863" y2="18.6248" stroke="#8D6F57" stroke-width="2"/>
<line x1="5.6825" y1="23.812" x2="19.5154" y2="23.812" stroke="#8D6F57" stroke-width="2"/>
</svg>
